<svg width="138" height="138" xmlns="http://www.w3.org/2000/svg" xmlns:xlink="http://www.w3.org/1999/xlink" overflow="hidden"><defs><filter id="fx0" x="-10%" y="-10%" width="120%" height="120%" filterUnits="userSpaceOnUse" primitiveUnits="userSpaceOnUse"><feComponentTransfer color-interpolation-filters="sRGB"><feFuncR type="discrete" tableValues="0.34902 0.34902"/><feFuncG type="discrete" tableValues="0.976471 0.976471"/><feFuncB type="discrete" tableValues="0.976471 0.976471"/><feFuncA type="linear" slope="0.4" intercept="0"/></feComponentTransfer><feGaussianBlur stdDeviation="1.77778 1.77778"/></filter><clipPath id="clip1"><rect x="611" y="362" width="138" height="138"/></clipPath><clipPath id="clip2"><rect x="1" y="25" width="136" height="87"/></clipPath><clipPath id="clip3"><rect x="0" y="0" width="139" height="140"/></clipPath><clipPath id="clip4"><rect x="6" y="6" width="126" height="127"/></clipPath><clipPath id="clip5"><rect x="6" y="6" width="126" height="127"/></clipPath><clipPath id="clip6"><rect x="6" y="6" width="126" height="127"/></clipPath><clipPath id="clip7"><rect x="615" y="365" width="125" height="126"/></clipPath><clipPath id="clip8"><rect x="615" y="365" width="125" height="126"/></clipPath><clipPath id="clip9"><rect x="615" y="365" width="125" height="126"/></clipPath></defs><g clip-path="url(#clip1)" transform="translate(-611 -362)"><g clip-path="url(#clip2)" filter="url(#fx0)" transform="translate(611 361)"><g clip-path="url(#clip3)"><g clip-path="url(#clip4)"><g clip-path="url(#clip5)"><g clip-path="url(#clip6)"><path d="M114.299 39.8125C109.402 39.8125 106.395 47.7552 106.395 53.4518 106.395 58.0247 108.201 60.2773 109.773 61.3945 110.11 61.6064 110.403 61.8819 110.634 62.2057 110.926 62.6559 111.065 63.1874 111.033 63.7227L110.275 89.6341C110.411 91.7716 112.181 93.4374 114.323 93.444 114.413 93.444 114.503 93.444 114.595 93.4349 116.666 93.2813 118.294 91.603 118.385 89.5287L117.625 63.7292C117.593 63.1918 117.734 62.6585 118.027 62.207 118.281 61.8611 118.6 61.569 118.967 61.3477 120.47 60.2435 122.263 57.9753 122.263 53.431 122.19 47.7474 119.122 39.8125 114.299 39.8125ZM117.656 59.4141C117.057 59.7862 116.538 60.2729 116.128 60.8464 115.529 61.712 115.233 62.7509 115.285 63.8021L116.047 89.4896C115.988 90.3496 115.304 91.0346 114.444 91.0938 113.54 91.1479 112.746 90.4975 112.621 89.6003L113.375 63.8021C113.428 62.7553 113.135 61.7202 112.543 60.8555 112.15 60.3007 111.653 59.8271 111.079 59.4609 109.548 58.3646 108.736 56.2891 108.736 53.457 108.736 47.9674 111.594 42.1628 114.296 42.1628 116.956 42.1628 119.845 47.9766 119.918 53.457 119.922 56.2604 119.113 58.3398 117.656 59.4141Z" fill="#3B3838" transform="matrix(1 0 0 1.008 6.82843 6.82843)"/><path d="M18.543 42.5143 18.1693 40.625 4.8099 40.625 4.41927 42.4922C3.62911 46.3076 3.17987 50.1857 3.07682 54.0807 3.07682 58.6771 4.97786 60.9987 6.57292 62.1536L6.63411 62.1979 6.69661 62.237 6.95703 62.4023C7.14844 62.5208 7.36849 62.6549 7.59375 62.8034 8.02872 63.1007 8.28126 63.5997 8.26302 64.1263L7.63932 89.4987C7.58372 91.6482 9.28112 93.4357 11.4306 93.4913 13.5801 93.5469 15.3676 91.8495 15.4232 89.7 15.4249 89.6329 15.4249 89.5658 15.4232 89.4987L14.7474 64.0625C14.7289 63.5362 14.9809 63.0371 15.4154 62.7396 15.6289 62.5977 15.8385 62.4688 16.0221 62.349L16.3151 62.1667 16.3789 62.125 16.4414 62.0794C18.7617 60.3867 19.9388 57.6953 19.9388 54.082L19.9388 54.0365 19.9388 53.9818C19.7579 50.13 19.2914 46.297 18.543 42.5143ZM15.0599 60.1953C14.8073 60.3568 14.4727 60.5573 14.125 60.7865 13.0136 61.5294 12.3636 62.7927 12.4049 64.1289L13.0794 89.5547C13.1042 90.41 12.4309 91.1236 11.5755 91.1484 10.7201 91.1732 10.0066 90.4999 9.98177 89.6445 9.9809 89.6146 9.9809 89.5846 9.98177 89.5547L10.6146 64.1641C10.6532 62.8285 10.0019 61.5672 8.89063 60.8255 8.53906 60.5951 8.20182 60.3919 7.94531 60.2318 6.42708 59.1367 5.42188 57.237 5.42188 54.1276 5.52298 50.3737 5.95874 46.6362 6.72396 42.9596L7.84115 42.9596 7.84115 55.2448C7.88047 55.6022 8.20208 55.86 8.55949 55.8207 8.86267 55.7874 9.10206 55.5479 9.13542 55.2448L9.13542 42.9688 10.849 42.9688 10.849 55.2539C10.8849 55.6117 11.204 55.8725 11.5618 55.8367 11.8699 55.8057 12.1136 55.562 12.1445 55.2539L12.1445 42.9688 13.8372 42.9688 13.8372 55.2539 13.8372 55.2539C13.8372 55.6134 14.1288 55.905 14.4883 55.905 14.8478 55.905 15.1393 55.6134 15.1393 55.2539L15.1393 42.9688 16.2565 42.9688C16.9818 46.6376 17.4336 50.3553 17.6081 54.0911 17.5951 57.1966 16.5898 59.0794 15.0599 60.1953Z" fill="#3B3838" transform="matrix(1 0 0 1.008 6.82843 6.82843)"/><path d="M105.117 36.0677C105.134 34.2146 103.645 32.699 101.792 32.6823 101.772 32.6822 101.752 32.6822 101.732 32.6823 100.93 32.7109 96.8945 33.4167 96.2539 44.4323L95.1823 63.1641C95.1823 64.625 96.8568 65.4557 98.1992 65.9805L97.1354 89.28C97.2867 91.6029 99.2112 93.4119 101.539 93.4193 101.63 93.4193 101.723 93.4193 101.814 93.4102 104.072 93.2555 105.853 91.4271 105.948 89.1654L105.113 64.888ZM101.674 91.0703C100.578 91.1477 99.6137 90.3516 99.4818 89.2604L100.617 64.3828 99.6563 64.026C98.8983 63.8061 98.1819 63.462 97.5365 63.0078L98.5964 44.569C99.0286 37.1354 101.122 35.1549 101.806 35.0247 102.355 35.0389 102.789 35.4956 102.775 36.0448 102.775 36.0464 102.775 36.0479 102.775 36.0495L102.775 64.9089 103.612 89.1276C103.549 90.1714 102.718 91.0046 101.674 91.0703Z" fill="#3B3838" transform="matrix(1 0 0 1.008 6.82843 6.82843)"/><path d="M57.2917 26.0417C37.8754 26.0417 22.1354 41.7816 22.1354 61.1979 22.1354 80.6142 37.8754 96.3542 57.2917 96.3542 76.7079 96.3542 92.4479 80.6142 92.4479 61.1979 92.4479 41.7816 76.7079 26.0417 57.2917 26.0417ZM57.2917 93.75C39.3137 93.75 24.7396 79.1759 24.7396 61.1979 24.7396 43.2199 39.3137 28.6458 57.2917 28.6458 75.2697 28.6458 89.8438 43.2199 89.8438 61.1979 89.8237 79.1676 75.2613 93.7299 57.2917 93.75Z" fill="#3B3838" transform="matrix(1 0 0 1.008 6.82843 6.82843)"/><path d="M57.2917 36.4583C43.6284 36.4583 32.5521 47.5346 32.5521 61.1979 32.5521 74.8612 43.6284 85.9375 57.2917 85.9375 70.9549 85.9375 82.0313 74.8612 82.0313 61.1979 82.0162 47.5409 70.9487 36.4734 57.2917 36.4583ZM57.2917 83.3333C45.0667 83.3333 35.1563 73.4229 35.1563 61.1979 35.1563 48.9729 45.0667 39.0625 57.2917 39.0625 69.5167 39.0625 79.4271 48.9729 79.4271 61.1979 79.4134 73.4173 69.5111 83.3197 57.2917 83.3333Z" fill="#3B3838" transform="matrix(1 0 0 1.008 6.82843 6.82843)"/></g></g></g></g></g><g clip-path="url(#clip7)"><g clip-path="url(#clip8)"><g clip-path="url(#clip9)"><path d="M114.299 39.8125C109.402 39.8125 106.395 47.7552 106.395 53.4518 106.395 58.0247 108.201 60.2773 109.773 61.3945 110.11 61.6064 110.403 61.8819 110.634 62.2057 110.926 62.6559 111.065 63.1874 111.033 63.7227L110.275 89.6341C110.411 91.7716 112.181 93.4374 114.323 93.444 114.413 93.444 114.503 93.444 114.595 93.4349 116.666 93.2813 118.294 91.603 118.385 89.5287L117.625 63.7292C117.593 63.1918 117.734 62.6585 118.027 62.207 118.281 61.8611 118.6 61.569 118.967 61.3477 120.47 60.2435 122.263 57.9753 122.263 53.431 122.19 47.7474 119.122 39.8125 114.299 39.8125ZM117.656 59.4141C117.057 59.7862 116.538 60.2729 116.128 60.8464 115.529 61.712 115.233 62.7509 115.285 63.8021L116.047 89.4896C115.988 90.3496 115.304 91.0346 114.444 91.0938 113.54 91.1479 112.746 90.4975 112.621 89.6003L113.375 63.8021C113.428 62.7553 113.135 61.7202 112.543 60.8555 112.15 60.3007 111.653 59.8271 111.079 59.4609 109.548 58.3646 108.736 56.2891 108.736 53.457 108.736 47.9674 111.594 42.1628 114.296 42.1628 116.956 42.1628 119.845 47.9766 119.918 53.457 119.922 56.2604 119.113 58.3398 117.656 59.4141Z" fill="#3B3838" transform="matrix(1 0 0 1.008 615 365)"/><path d="M18.543 42.5143 18.1693 40.625 4.8099 40.625 4.41927 42.4922C3.62911 46.3076 3.17987 50.1857 3.07682 54.0807 3.07682 58.6771 4.97786 60.9987 6.57292 62.1536L6.63411 62.1979 6.69661 62.237 6.95703 62.4023C7.14844 62.5208 7.36849 62.6549 7.59375 62.8034 8.02872 63.1007 8.28126 63.5997 8.26302 64.1263L7.63932 89.4987C7.58372 91.6482 9.28112 93.4357 11.4306 93.4913 13.5801 93.5469 15.3676 91.8495 15.4232 89.7 15.4249 89.6329 15.4249 89.5658 15.4232 89.4987L14.7474 64.0625C14.7289 63.5362 14.9809 63.0371 15.4154 62.7396 15.6289 62.5977 15.8385 62.4688 16.0221 62.349L16.3151 62.1667 16.3789 62.125 16.4414 62.0794C18.7617 60.3867 19.9388 57.6953 19.9388 54.082L19.9388 54.0365 19.9388 53.9818C19.7579 50.13 19.2914 46.297 18.543 42.5143ZM15.0599 60.1953C14.8073 60.3568 14.4727 60.5573 14.125 60.7865 13.0136 61.5294 12.3636 62.7927 12.4049 64.1289L13.0794 89.5547C13.1042 90.41 12.4309 91.1236 11.5755 91.1484 10.7201 91.1732 10.0066 90.4999 9.98177 89.6445 9.9809 89.6146 9.9809 89.5846 9.98177 89.5547L10.6146 64.1641C10.6532 62.8285 10.0019 61.5672 8.89063 60.8255 8.53906 60.5951 8.20182 60.3919 7.94531 60.2318 6.42708 59.1367 5.42188 57.237 5.42188 54.1276 5.52298 50.3737 5.95874 46.6362 6.72396 42.9596L7.84115 42.9596 7.84115 55.2448C7.88047 55.6022 8.20208 55.86 8.55949 55.8207 8.86267 55.7874 9.10206 55.5479 9.13542 55.2448L9.13542 42.9688 10.849 42.9688 10.849 55.2539C10.8849 55.6117 11.204 55.8725 11.5618 55.8367 11.8699 55.8057 12.1136 55.562 12.1445 55.2539L12.1445 42.9688 13.8372 42.9688 13.8372 55.2539 13.8372 55.2539C13.8372 55.6134 14.1288 55.905 14.4883 55.905 14.8478 55.905 15.1393 55.6134 15.1393 55.2539L15.1393 42.9688 16.2565 42.9688C16.9818 46.6376 17.4336 50.3553 17.6081 54.0911 17.5951 57.1966 16.5898 59.0794 15.0599 60.1953Z" fill="#3B3838" transform="matrix(1 0 0 1.008 615 365)"/><path d="M105.117 36.0677C105.134 34.2146 103.645 32.699 101.792 32.6823 101.772 32.6822 101.752 32.6822 101.732 32.6823 100.93 32.7109 96.8945 33.4167 96.2539 44.4323L95.1823 63.1641C95.1823 64.625 96.8568 65.4557 98.1992 65.9805L97.1354 89.28C97.2867 91.6029 99.2112 93.4119 101.539 93.4193 101.63 93.4193 101.723 93.4193 101.814 93.4102 104.072 93.2555 105.853 91.4271 105.948 89.1654L105.113 64.888ZM101.674 91.0703C100.578 91.1477 99.6137 90.3516 99.4818 89.2604L100.617 64.3828 99.6563 64.026C98.8983 63.8061 98.1819 63.462 97.5365 63.0078L98.5964 44.569C99.0286 37.1354 101.122 35.1549 101.806 35.0247 102.355 35.0389 102.789 35.4956 102.775 36.0448 102.775 36.0464 102.775 36.0479 102.775 36.0495L102.775 64.9089 103.612 89.1276C103.549 90.1714 102.718 91.0046 101.674 91.0703Z" fill="#3B3838" transform="matrix(1 0 0 1.008 615 365)"/><path d="M57.2917 26.0417C37.8754 26.0417 22.1354 41.7816 22.1354 61.1979 22.1354 80.6142 37.8754 96.3542 57.2917 96.3542 76.7079 96.3542 92.4479 80.6142 92.4479 61.1979 92.4479 41.7816 76.7079 26.0417 57.2917 26.0417ZM57.2917 93.75C39.3137 93.75 24.7396 79.1759 24.7396 61.1979 24.7396 43.2199 39.3137 28.6458 57.2917 28.6458 75.2697 28.6458 89.8438 43.2199 89.8438 61.1979 89.8237 79.1676 75.2613 93.7299 57.2917 93.75Z" fill="#3B3838" transform="matrix(1 0 0 1.008 615 365)"/><path d="M57.2917 36.4583C43.6284 36.4583 32.5521 47.5346 32.5521 61.1979 32.5521 74.8612 43.6284 85.9375 57.2917 85.9375 70.9549 85.9375 82.0313 74.8612 82.0313 61.1979 82.0162 47.5409 70.9487 36.4734 57.2917 36.4583ZM57.2917 83.3333C45.0667 83.3333 35.1563 73.4229 35.1563 61.1979 35.1563 48.9729 45.0667 39.0625 57.2917 39.0625 69.5167 39.0625 79.4271 48.9729 79.4271 61.1979 79.4134 73.4173 69.5111 83.3197 57.2917 83.3333Z" fill="#3B3838" transform="matrix(1 0 0 1.008 615 365)"/></g></g></g></g></svg>